#!OML:ASF F:\VICON\USERDATA\INSTALL\rory3\rory3.ASF
:FULLY-SPECIFIED
:DEGREES
46
root 0.45959293211048247 17.38432749789117 17.376837627147186 1.6567112156112729 -3.3060153536236916 -2.764532574307368
lfemur -14.587890065474047 5.459250242708979 -15.205590169055721
ltibia 89.61625866493071
lfoot 6.18036016065179 -14.016244159926313
ltoes -3.409361869362728
rfemur -30.65462515145803 3.972276072027082 28.9387708492816
rtibia 58.70521533847011
rfoot -5.497449677961502 -3.468852691569166
rtoes -2.838301722657892
lowerback 15.123859051757746 -0.8522938318669744 -0.3205665488934877
upperback -0.3505734156430901 -0.5827839842609925 1.6225183332903392
thorax -9.150932517792427 -0.1931732984293948 1.6277939044423433
lowerneck -20.67125140982245 -3.943053876753091 -1.8460267624680453
upperneck 15.785123006291057 -5.9205276254327925 2.4031395935476607
head 8.401655808305156 -2.4918646388119257 0.45717430992074093
lclavicle -1.9521778548038573e-15 1.1013510665873355e-15
lhumerus -45.293989089194234 -9.582260218852946 97.9478680857121
lradius 108.23684599464552
lwrist 46.443778356438486
lhand -17.400974324723887 5.689440552608752
lfingers 7.125020000000001
lthumb 8.722919624844417 35.02585610888925
rclavicle -1.9521588892316514e-15 1.1013659669827989e-15
rhumerus -52.32053405165024 8.37559725274113 -99.64760413573038
rradius 109.3848779230645
rwrist -15.83280428916375
rhand -23.29445045438698 -147.71602459324373
rfingers 7.125020000000001
rthumb 2.0078069368797262 12.42344918434715
47
root 0.4340725503008139 17.224682070630493 17.11109319154448 1.8260823889375084 -3.2737212144978622 -3.39219028334518
lfemur -17.99221341338601 6.56973964414683 -13.013497410071142
ltibia 94.04125222113294
lfoot 5.437236392684969 -14.479883993413846
ltoes -4.041387933526519
rfemur -27.805976353916414 5.471011072949885 31.002881608936423
rtibia 59.72056621771067
rfoot -8.759486351004133 -4.896964712521144
rtoes -2.3711249053126275
lowerback 15.530897425071236 -0.6356406386253097 0.29273247325545737
upperback -0.17628134176019383 -0.035784519619828314 1.8040346440243151
thorax -9.233349195678516 -0.05235742182048242 1.3219995029350224
lowerneck -20.80747663155383 -4.105109521960827 -1.809906467388276
upperneck 15.644304849351293 -6.145645983031081 2.3836123095476593
head 8.359028761153414 -2.5442702751816237 0.44175611609517895
lclavicle -1.9521778548038573e-15 1.1013510665873355e-15
lhumerus -46.83550456535727 -8.741353903450745 98.24597835285765
lradius 107.86409089112755
lwrist 46.416126335797045
lhand -17.433884451728122 6.262942846929077
lfingers 7.125020000000001
lthumb 8.635859521316968 35.45911266095314
rclavicle -1.9521588892316514e-15 1.1013659669827989e-15
rhumerus -50.22480475045569 9.305604888981836 -100.02909097128688
rradius 109.93879235687521
rwrist -15.319489926111792
rhand -23.02065143604839 -143.5171675076778
rfingers 7.125020000000001
rthumb 2.3302595848785828 13.006964031733489
48
root 0.4247981582223635 17.130900369134924 17.593118829821805 2.128537002909127 -2.9495530906890233 -3.5701043379307205
lfemur -22.908861846743978 7.119241362221287 -12.107954726767842
ltibia 97.83699217981359
lfoot 5.702670107863615 -13.9503573222283
ltoes -4.732359480705268
rfemur -24.720291784402114 6.6708858859205655 32.83711203520411
rtibia 60.07120822314834
rfoot -11.843388929494278 -6.648015271319872
rtoes -1.7864269499367627
lowerback 15.86955940315732 -0.44129819274226295 0.9838418694382544
upperback -0.08868397645866244 0.33372952793295807 1.9558245815069668
thorax -9.380703920839768 0.06849045649509417 0.9423048387199919
lowerneck -20.848034855949887 -4.259599012237335 -1.7741379560023982
upperneck 15.528012392874668 -6.3824688043859545 2.39239347487604
head 8.306564005718132 -2.6017021239141047 0.42881689251467225
lclavicle -1.9521778548038573e-15 1.1013510665873355e-15
lhumerus -48.27163707615412 -8.050881508604645 98.46587496861973
lradius 108.22515792344043
lwrist 46.58969562644175
lhand -17.59295707028504 6.486261477468481
lfingers 7.125020000000001
lthumb 8.513537426568732 35.84045442619463
rclavicle -1.9521588892316506e-15 1.1013659669827994e-15
rhumerus -48.11448508279554 10.452282310102856 -100.44418795005954
rradius 110.34235134757967
rwrist -15.096864891674986
rhand -23.297913818039294 -138.99660623686674
rfingers 7.125020000000001
rthumb 2.4255948153125693 12.998495255196964
49
root 0.4258253089343872 17.09910608130626 18.088858613999275 2.425088621761514 -2.2067394775536817 -3.655189517265543
lfemur -25.73652048378316 7.6264516250284435 -11.325732753655945
ltibia 100.50443623776624
lfoot 5.432279840509264 -13.19276993686541
ltoes -5.735337472173876
rfemur -23.994040358078415 6.994192720919413 33.60426949006904
rtibia 59.220397226495
rfoot -13.930112554645412 -8.239806650683999
rtoes -1.2591566741449725
lowerback 16.063044528379194 -0.2685121504290117 1.591208838684447
upperback -0.05696732561756912 0.7029476313351347 2.148005338165647
thorax -9.454995168585222 0.231516962112784 0.6731236556786003
lowerneck -20.770201838434996 -4.43212045813409 -1.743782982571322
upperneck 15.416063786482477 -6.638978031372593 2.4201900430350967
head 8.26542582778481 -2.666473203974918 0.4196863368521532
lclavicle -1.9521778548038573e-15 1.1013510665873355e-15
lhumerus -49.601481844820164 -7.574287548170965 98.76346262730523
lradius 108.96544453275213
lwrist 46.46749843261215
lhand -17.636939660194056 6.8311958877760235
lfingers 7.125020000000001
lthumb 8.402066789992336 36.19314666910916
rclavicle -1.95215888923165e-15 1.1013659669828e-15
rhumerus -45.83905662182665 11.850612519838638 -100.71856741291572
rradius 110.64742046282937
rwrist -15.151758724445358
rhand -23.34255163347498 -133.97483861018134
rfingers 7.125020000000001
rthumb 2.3341065091448465 13.328184952167824
